<?xml version="1.0" standalone="no"?>
<!DOCTYPE svg PUBLIC "-//W3C//DTD SVG 20010904//EN"
 "http://www.w3.org/TR/2001/REC-SVG-20010904/DTD/svg10.dtd">
<svg version="1.0" xmlns="http://www.w3.org/2000/svg"
 width="500.000000pt" height="500.000000pt" viewBox="0 0 500.000000 500.000000"
 preserveAspectRatio="xMidYMid meet">

<g transform="translate(0.000000,500.000000) scale(0.100000,-0.100000)"
fill="#000000" stroke="none">
<path d="M2439 4077 c-41 -24 -139 -81 -219 -127 -80 -46 -170 -98 -200 -116
-30 -17 -111 -64 -180 -104 -390 -226 -815 -472 -819 -476 -3 -3 0 -8 5 -13 5
-6 35 6 74 29 299 175 620 357 620 350 0 -4 -60 -111 -133 -237 -73 -125 -213
-366 -312 -535 -127 -220 -183 -308 -196 -308 -9 0 -24 -3 -33 -6 -14 -6 -16
21 -16 252 0 264 -6 347 -21 322 -5 -7 -9 -148 -9 -314 l0 -300 -50 -124 c-28
-68 -50 -127 -50 -132 0 -4 16 -8 36 -8 30 0 37 4 47 33 10 26 13 -42 17 -368
l5 -400 205 -118 c234 -136 762 -440 1081 -623 119 -68 220 -124 226 -124 5 0
347 195 759 433 l749 434 3 366 2 367 35 0 c33 0 35 2 35 35 0 33 -2 35 -35
35 -31 0 -35 3 -35 25 0 22 4 25 36 25 34 0 35 1 32 33 -3 28 -7 32 -35 35
-25 2 -33 8 -33 23 0 15 7 19 35 19 33 0 35 2 35 35 0 33 -2 35 -35 35 l-35 0
0 353 c0 325 -1 355 -17 369 -10 8 -173 104 -363 213 -190 109 -444 255 -565
325 -121 70 -285 164 -365 210 -80 45 -159 91 -176 101 l-30 18 -75 -42z m451
-207 c173 -100 317 -184 319 -186 2 -2 -310 -4 -695 -4 l-699 0 90 53 c50 30
137 81 195 114 58 34 175 101 260 151 l155 90 30 -18 c17 -10 172 -100 345
-200z m-75 -220 l431 0 318 -556 c175 -305 315 -558 312 -561 -3 -3 -16 -11
-28 -17 -88 -44 -82 -231 8 -276 l31 -16 -52 -89 c-29 -50 -143 -247 -255
-440 -112 -192 -235 -405 -274 -473 l-71 -123 -435 5 c-239 3 -570 5 -735 6
l-301 0 -224 393 c-124 215 -273 475 -332 577 -58 101 -104 188 -102 192 11
18 54 7 70 -17 12 -19 25 -25 50 -25 19 0 34 2 34 5 0 19 -88 228 -110 261
l-28 42 108 183 c87 150 260 449 514 888 l31 54 305 -7 c168 -3 499 -6 735 -6z
m835 -218 l345 -200 3 -351 2 -351 -42 0 c-39 0 -45 3 -64 38 -11 20 -81 143
-156 272 -74 129 -206 359 -293 510 -87 151 -160 279 -163 284 -9 16 12 4 368
-202z m-2541 -999 c10 -21 22 -48 25 -60 7 -22 4 -23 -38 -23 -56 0 -66 21
-36 79 11 23 22 41 25 41 3 0 13 -17 24 -37z m2831 7 c9 -18 8 -20 -15 -20
-22 0 -25 -4 -25 -35 0 -31 3 -35 25 -35 27 0 33 -18 13 -38 -18 -18 -45 -15
-68 8 -24 24 -27 86 -4 118 19 28 60 29 74 2z m60 0 c0 -23 -10 -26 -28 -8
-18 18 -15 28 8 28 13 0 20 -7 20 -20z m-4 -125 c-7 -18 -26 -20 -26 -2 0 18
24 41 28 27 2 -6 1 -17 -2 -25z m-2931 -49 c12 -11 89 -138 171 -281 81 -143
206 -361 278 -485 189 -328 218 -381 214 -385 -2 -2 -28 11 -58 29 -30 18
-187 109 -347 201 l-293 169 1 405 c1 223 3 398 6 387 3 -10 15 -28 28 -40z
m2935 -395 l0 -359 -122 -70 c-68 -38 -224 -128 -348 -199 -124 -72 -236 -136
-249 -143 l-24 -13 25 44 c14 24 132 229 263 454 131 226 258 445 282 488 85
153 89 157 133 157 l40 0 0 -359z m-761 -795 c-30 -26 -724 -416 -735 -412
-12 4 -209 119 -619 357 l-100 59 729 0 c401 0 727 -2 725 -4z"/>
<path d="M1414 2529 c-17 -5 -43 -20 -57 -33 -26 -24 -27 -28 -27 -146 l0
-121 33 3 32 3 5 110 5 110 40 13 c48 16 109 2 125 -28 5 -10 10 -62 10 -115
l0 -96 33 3 32 3 3 105 c3 124 -5 144 -67 177 -47 24 -109 29 -167 12z"/>
<path d="M3061 2515 c-21 -18 -43 -59 -75 -142 -25 -64 -46 -122 -46 -130 0
-8 12 -13 34 -13 33 0 34 1 65 88 38 104 67 156 82 146 6 -3 22 -30 35 -58
l24 -51 -50 -3 c-50 -3 -50 -3 -50 -38 l0 -34 60 0 c55 0 61 -2 70 -25 8 -21
16 -25 50 -25 l40 0 -21 53 c-83 209 -113 257 -162 257 -14 0 -39 -11 -56 -25z"/>
<path d="M1801 2517 c-87 -43 -87 -231 0 -274 14 -8 66 -13 132 -13 l107 0 0
35 0 35 -100 0 c-87 0 -103 3 -120 20 -24 24 -27 86 -4 118 14 20 23 22 120
22 l104 0 0 35 0 35 -107 0 c-66 0 -118 -5 -132 -13z"/>
<path d="M2175 2508 c-34 -27 -55 -75 -55 -128 0 -53 21 -101 55 -128 25 -20
40 -22 146 -22 l119 0 0 35 0 35 -109 0 c-106 0 -110 1 -130 26 -12 15 -21 39
-21 54 0 15 9 39 21 54 20 25 24 26 130 26 l109 0 0 35 0 35 -119 0 c-106 0
-121 -2 -146 -22z"/>
<path d="M2535 2514 c-13 -13 -15 -38 -13 -147 l3 -132 35 0 35 0 3 113 3 112
94 0 c83 0 96 -2 105 -19 21 -40 4 -50 -88 -53 l-87 -3 -3 -32 -3 -33 101 0
c93 0 103 2 125 24 53 53 37 144 -30 172 -51 21 -258 20 -280 -2z"/>
<path d="M3373 2519 c-9 -9 -13 -54 -13 -151 l0 -138 35 0 35 0 0 115 0 116
103 -3 c83 -2 102 -6 102 -18 0 -12 -18 -16 -80 -20 -101 -6 -109 -11 -101
-62 16 -99 55 -128 176 -128 l80 0 0 35 0 35 -74 0 c-54 0 -79 4 -90 16 -27
26 -18 34 39 34 31 0 69 7 85 15 51 26 54 104 7 139 -25 18 -45 21 -160 24
-97 2 -135 0 -144 -9z"/>
<path d="M2237 2414 c-4 -4 -7 -20 -7 -36 l0 -28 106 0 105 0 -3 33 -3 32 -95
3 c-53 1 -99 0 -103 -4z"/>
<path d="M4275 2528 c-16 -6 -42 -22 -57 -36 -28 -25 -28 -28 -28 -144 l0
-118 35 0 35 0 0 103 c0 114 6 127 64 141 35 9 93 -10 106 -34 6 -10 10 -62
10 -114 l0 -96 35 0 35 0 0 113 c0 88 -4 118 -16 136 -36 51 -145 75 -219 49z"/>
<path d="M67 2523 c-4 -3 -7 -19 -7 -35 l0 -28 70 0 69 0 3 -112 3 -113 33 -3
32 -3 0 115 0 116 70 0 70 0 0 35 0 35 -168 0 c-93 0 -172 -3 -175 -7z"/>
<path d="M510 2520 c-11 -7 -14 -37 -15 -147 l0 -138 35 0 35 0 3 113 3 112
93 0 c66 0 97 -4 105 -13 17 -22 3 -27 -78 -27 -42 0 -82 -4 -90 -9 -19 -12
-9 -96 16 -130 30 -40 61 -51 146 -51 l77 0 0 35 0 35 -73 0 c-72 0 -97 10
-97 37 0 9 18 13 61 13 54 0 64 3 90 29 45 46 33 107 -26 136 -37 17 -259 22
-285 5z"/>
<path d="M4600 2495 l0 -34 68 -3 67 -3 3 -112 3 -113 29 0 29 0 3 113 3 112
68 3 67 3 0 34 0 35 -170 0 -170 0 0 -35z"/>
</g>
</svg>
