<?xml version="1.0" standalone="no"?>
<!DOCTYPE svg PUBLIC "-//W3C//DTD SVG 20010904//EN"
 "http://www.w3.org/TR/2001/REC-SVG-20010904/DTD/svg10.dtd">
<svg version="1.0" xmlns="http://www.w3.org/2000/svg"
 width="512.000000pt" height="512.000000pt" viewBox="0 0 512.000000 512.000000"
 preserveAspectRatio="xMidYMid meet">

<g transform="translate(0.000000,512.000000) scale(0.100000,-0.100000)"
fill="#000000" stroke="none">
<path d="M2573 4113 c-21 -8 -15 -20 14 -26 24 -4 25 -4 10 7 -9 7 -14 16 -10
19 7 8 4 8 -14 0z"/>
<path d="M2488 4053 c7 -3 16 -2 19 1 4 3 -2 6 -13 5 -11 0 -14 -3 -6 -6z"/>
<path d="M2400 3999 c0 -5 5 -7 10 -4 6 3 10 8 10 11 0 2 -4 4 -10 4 -5 0 -10
-5 -10 -11z"/>
<path d="M1827 3683 c-130 -76 -237 -141 -237 -145 0 -14 30 -9 36 5 3 8 10
14 17 14 11 0 91 43 197 106 l34 21 -21 -34 c-69 -116 -104 -182 -100 -193 3
-10 87 124 131 211 l17 32 160 0 c96 0 158 4 154 9 -3 5 -66 9 -140 8 -74 -1
-135 0 -135 3 0 3 24 17 53 33 66 35 107 66 87 67 -8 0 -122 -62 -253 -137z"/>
<path d="M2268 3703 c6 -2 18 -2 25 0 6 3 1 5 -13 5 -14 0 -19 -2 -12 -5z"/>
<path d="M1355 3409 c-102 -58 -117 -69 -92 -69 20 0 197 101 197 112 0 15
-16 8 -105 -43z"/>
<path d="M1726 3425 c-3 -8 -1 -15 3 -15 5 0 11 7 15 15 3 8 1 15 -3 15 -5 0
-11 -7 -15 -15z"/>
<path d="M1200 3155 c0 -75 4 -114 10 -110 13 8 12 213 -1 221 -5 3 -9 -43 -9
-111z"/>
<path d="M1506 3045 c-3 -8 -1 -15 3 -15 5 0 11 7 15 15 3 8 1 15 -3 15 -5 0
-11 -7 -15 -15z"/>
<path d="M1200 2921 c0 -38 5 -73 10 -76 6 -4 10 20 10 64 0 38 -4 73 -10 76
-6 4 -10 -20 -10 -64z"/>
<path d="M1460 2971 c-13 -25 -13 -34 0 -26 16 10 32 45 21 45 -6 0 -15 -9
-21 -19z"/>
<path d="M3691 2936 c7 -15 15 -23 17 -16 3 7 -3 19 -13 28 -15 16 -16 15 -4
-12z"/>
<path d="M3722 2878 c2 -6 10 -14 16 -16 7 -2 10 2 6 12 -7 18 -28 22 -22 4z"/>
<path d="M1371 2809 c-13 -22 -21 -42 -19 -45 3 -2 15 14 27 37 13 22 21 42
19 45 -3 2 -15 -14 -27 -37z"/>
<path d="M1205 2791 c-3 -5 -1 -12 5 -16 5 -3 10 1 10 9 0 18 -6 21 -15 7z"/>
<path d="M1200 2681 c0 -27 -7 -65 -15 -85 -15 -36 -10 -47 13 -24 6 6 15 8
19 4 5 -4 -3 -16 -16 -27 -16 -13 -22 -26 -18 -40 4 -15 2 -19 -9 -15 -18 7
-18 -8 0 -23 10 -8 16 -9 21 -1 3 6 11 8 16 5 5 -4 9 0 9 7 1 8 7 5 16 -7 12
-16 16 -17 23 -6 6 9 2 20 -10 32 -22 22 -23 35 -4 69 19 33 18 41 -2 33 -11
-4 -14 -3 -9 6 4 6 2 19 -5 27 -7 9 -12 34 -10 55 1 23 -2 39 -8 39 -6 0 -11
-21 -11 -49z"/>
<path d="M1232 2661 c-10 -6 -10 -10 3 -21 12 -10 18 -10 30 0 8 7 15 16 15
21 0 11 -31 11 -48 0z"/>
<path d="M3085 2650 c-16 -18 -16 -20 0 -36 13 -14 14 -19 3 -25 -10 -7 -9 -9
3 -9 9 0 19 7 23 15 3 8 12 15 20 15 7 0 16 -7 20 -15 3 -8 11 -15 17 -15 8 0
8 4 -1 15 -10 13 -9 15 11 16 l24 0 -22 9 c-29 12 -30 24 -2 17 20 -5 20 -5 3
14 -23 25 -75 25 -99 -1z"/>
<path d="M747 2653 c-13 -12 -7 -102 6 -110 7 -4 21 -19 30 -33 l17 -24 0 37
c0 24 -7 44 -21 58 -22 22 -19 40 3 22 14 -11 58 0 58 14 0 4 -7 16 -14 26
-13 17 -66 24 -79 10z"/>
<path d="M864 2631 c17 -17 34 -27 43 -24 12 5 12 7 1 14 -9 6 -10 9 -1 9 7 0
10 7 7 15 -4 9 -19 15 -42 15 l-36 0 28 -29z"/>
<path d="M3366 2644 c-11 -28 -6 -39 9 -20 8 11 15 23 15 28 0 14 -18 9 -24
-8z"/>
<path d="M1283 2643 c-19 -7 -16 -30 4 -37 11 -5 22 -1 30 10 9 12 13 14 13 4
0 -7 3 -10 6 -7 9 8 -15 37 -30 36 -6 0 -17 -3 -23 -6z"/>
<path d="M4765 2626 c11 -8 24 -12 29 -8 5 3 1 9 -10 13 -31 12 -39 10 -19 -5z"/>
<path d="M605 2620 c3 -5 8 -10 11 -10 2 0 4 5 4 10 0 6 -5 10 -11 10 -5 0 -7
-4 -4 -10z"/>
<path d="M2625 2580 c-7 -12 2 -30 16 -30 5 0 9 9 9 20 0 21 -15 27 -25 10z"/>
<path d="M827 2553 c-4 -3 -7 -15 -7 -26 0 -19 1 -19 20 3 16 18 23 21 32 12
17 -17 28 -15 22 3 -6 15 -55 21 -67 8z"/>
<path d="M2600 2525 c0 -30 3 -36 12 -27 16 16 28 15 28 -3 0 -8 -9 -15 -20
-15 -13 0 -20 -7 -20 -20 0 -11 4 -20 9 -20 5 0 13 -9 16 -20 12 -38 25 -20
25 35 0 46 -5 61 -25 83 l-25 27 0 -40z"/>
<path d="M2690 2519 c0 -5 5 -7 10 -4 6 3 10 8 10 11 0 2 -4 4 -10 4 -5 0 -10
-5 -10 -11z"/>
<path d="M842 2508 c-24 -24 -3 -76 38 -98 18 -10 19 -8 14 22 -4 25 -3 29 5
18 6 -8 11 -10 11 -4 0 23 -15 24 -33 2 l-19 -23 6 42 c6 44 -3 60 -22 41z"/>
<path d="M2765 2490 c3 -5 8 -10 11 -10 2 0 4 5 4 10 0 6 -5 10 -11 10 -5 0
-7 -4 -4 -10z"/>
<path d="M780 2460 c0 -5 5 -10 11 -10 5 0 7 5 4 10 -3 6 -8 10 -11 10 -2 0
-4 -4 -4 -10z"/>
<path d="M3528 2403 c12 -2 30 -2 40 0 9 3 -1 5 -23 4 -22 0 -30 -2 -17 -4z"/>
<path d="M1205 2390 c-3 -5 -1 -10 4 -10 6 0 11 5 11 10 0 6 -2 10 -4 10 -3 0
-8 -4 -11 -10z"/>
<path d="M1296 2375 c4 -8 10 -15 15 -15 4 0 6 7 3 15 -4 8 -10 15 -15 15 -4
0 -6 -7 -3 -15z"/>
<path d="M1360 2273 c0 -13 52 -94 57 -89 3 3 -7 26 -21 51 -25 42 -36 54 -36
38z"/>
<path d="M3754 2233 c-6 -10 -22 -38 -36 -63 -38 -67 -61 -107 -112 -194 -26
-43 -45 -83 -43 -89 2 -7 33 38 69 98 101 172 140 244 136 255 -2 6 -8 2 -14
-7z"/>
<path d="M3952 2150 c-2 -43 1 -81 7 -84 5 -4 9 26 10 73 1 104 -13 113 -17
11z"/>
<path d="M1441 2130 c6 -16 15 -30 20 -30 5 0 3 14 -6 30 -9 17 -17 30 -20 30
-2 0 1 -13 6 -30z"/>
<path d="M3526 1835 c-3 -8 -1 -15 3 -15 5 0 11 7 15 15 3 8 1 15 -3 15 -5 0
-11 -7 -15 -15z"/>
<path d="M3494 1783 c-5 -10 -20 -35 -32 -55 -13 -20 -19 -39 -14 -42 4 -2 23
22 41 55 18 32 29 59 24 59 -4 0 -13 -8 -19 -17z"/>
<path d="M3875 1693 c-30 -16 -47 -34 -40 -41 6 -7 75 39 75 49 0 11 1 11 -35
-8z"/>
<path d="M3700 1594 c-107 -63 -106 -62 -97 -70 9 -9 177 88 188 108 5 10 8
18 7 18 -2 -1 -46 -26 -98 -56z"/>
<path d="M3370 1571 c-7 -15 -7 -21 0 -21 12 0 25 28 17 36 -3 3 -10 -4 -17
-15z"/>
<path d="M3301 1453 c-38 -63 -46 -94 -17 -62 24 25 78 129 67 129 -5 0 -28
-30 -50 -67z"/>
<path d="M3558 1509 c-28 -16 -21 -30 7 -17 14 6 25 15 25 20 0 11 -11 10 -32
-3z"/>
<path d="M1610 1499 c0 -9 59 -49 73 -49 18 0 3 17 -33 37 -22 12 -40 17 -40
12z"/>
<path d="M3500 1470 c0 -5 5 -10 10 -10 6 0 10 5 10 10 0 6 -4 10 -10 10 -5 0
-10 -4 -10 -10z"/>
<path d="M3428 1435 c-49 -28 -54 -33 -23 -28 14 3 25 10 25 15 0 5 4 7 9 4 4
-3 16 1 26 8 31 23 2 24 -37 1z"/>
<path d="M1716 1436 c6 -15 285 -181 314 -188 8 -2 18 -7 21 -11 9 -12 173
-106 177 -102 2 2 1 8 -2 13 -7 12 -155 99 -175 104 -7 2 -24 12 -37 24 -13
11 -41 29 -64 39 -22 10 -40 21 -40 24 0 4 20 6 45 6 25 0 45 3 45 8 0 4 -22
7 -50 7 -47 0 -50 2 -80 45 -17 25 -33 45 -36 45 -3 0 6 -20 20 -45 15 -25 25
-45 22 -45 -3 0 -28 13 -56 30 -92 54 -110 62 -104 46z"/>
<path d="M3313 1370 c-40 -23 -51 -26 -46 -13 5 13 2 15 -11 10 -10 -4 -50 -7
-88 -7 -89 0 -81 -12 13 -19 l70 -6 -83 -49 c-46 -27 -85 -52 -88 -56 -3 -4
-13 -9 -22 -13 -10 -3 -18 -11 -18 -18 0 -11 107 44 125 64 6 7 17 13 25 15
31 7 190 104 185 113 -8 11 -2 14 -62 -21z"/>
<path d="M2028 1353 c7 -3 16 -2 19 1 4 3 -2 6 -13 5 -11 0 -14 -3 -6 -6z"/>
<path d="M2114 1350 c28 -9 134 -5 144 5 3 3 -35 5 -84 4 -66 0 -82 -3 -60 -9z"/>
<path d="M2282 1355 c10 -11 48 -14 53 -4 4 5 -8 9 -26 9 -18 0 -30 -2 -27 -5z"/>
<path d="M2515 1350 c3 -5 17 -10 31 -10 14 0 22 4 19 10 -3 6 -17 10 -31 10
-14 0 -22 -4 -19 -10z"/>
<path d="M2810 1350 c20 -13 100 -13 100 0 0 6 -26 10 -57 10 -41 0 -54 -3
-43 -10z"/>
<path d="M2930 1350 c0 -5 20 -10 45 -10 25 0 45 5 45 10 0 6 -20 10 -45 10
-25 0 -45 -4 -45 -10z"/>
<path d="M2940 1153 c-48 -29 -41 -44 9 -19 29 16 47 34 39 41 -2 2 -24 -8
-48 -22z"/>
<path d="M2773 1057 c-85 -48 -109 -67 -83 -67 20 0 190 102 184 111 -7 12 4
16 -101 -44z"/>
<path d="M2370 1055 c7 -9 15 -13 17 -11 7 7 -7 26 -19 26 -6 0 -6 -6 2 -15z"/>
<path d="M2424 1023 c3 -4 17 -8 29 -10 17 -2 19 -1 7 7 -17 11 -47 14 -36 3z"/>
<path d="M2633 978 c-13 -6 -23 -17 -23 -25 0 -11 6 -11 30 2 17 9 28 20 25
25 -4 6 -7 10 -8 9 -1 0 -12 -5 -24 -11z"/>
</g>
</svg>
